Coordinates
version=1
nRows=22
nColumns=24
inDegrees=yes

Units are S.I. units (second, meters, Newtons, ...)
Angles are in degrees.

endheader
time	pelvis_tilt	pelvis_list	pelvis_rotation	pelvis_tx	pelvis_ty	pelvis_tz	hip_flexion_r	hip_adduction_r	hip_rotation_r	knee_angle_r	ankle_angle_r	subtalar_angle_r	mtp_angle_r	hip_flexion_l	hip_adduction_l	hip_rotation_l	knee_angle_l	ankle_angle_l	subtalar_angle_l	mtp_angle_l	lumbar_extension	lumbar_bending	lumbar_rotation
      3.55000000	    -20.23560143	      0.09791580	      6.60032262	     -1.89134299	     -0.03283347	     -0.27574014	     46.06130102	     -0.56090883	      3.75766900	     -7.09460872	     -2.26713146	     -3.62603235	      7.93166768	     -0.73510764	      4.02877918	     13.29601912	    -11.31060498	     21.29788463	     25.85137552	    -64.39310849	     12.96183502	     -1.79135404	     -9.49553811
      3.55500000	    -20.29501988	     -0.02238900	      6.73807396	     -1.88281016	     -0.03424996	     -0.27552964	     46.34929053	     -0.44456567	      3.76743019	     -8.10358423	     -2.39455456	     -3.70913616	      8.27844264	     -0.78734378	      3.82939439	     13.15088718	    -12.13338531	     21.08529773	     26.54260063	    -64.12704471	     13.12522554	     -1.74929481	     -9.70988564
      3.56000000	    -20.35678377	     -0.16058846	      6.80139029	     -1.87409501	     -0.03567660	     -0.27519267	     46.64345276	     -0.24694003	      3.76378996	     -9.18474468	     -2.82440431	     -3.88665965	      8.96544109	     -0.82935920	      3.59407419	     12.83546349	    -12.97383545	     20.78226237	     27.32674978	    -63.69035343	     13.31295475	     -1.67545113	     -9.79969169
      3.56500000	    -20.39470281	     -0.30975982	      6.87750267	     -1.86527639	     -0.03702043	     -0.27488019	     46.89031298	     -0.04545475	      3.76149501	    -10.29399806	     -3.53012034	     -4.18647343	      9.88673233	     -0.87062412	      3.34260505	     12.48680243	    -13.85078539	     20.35897353	     28.08554637	    -63.20034917	     13.48592493	     -1.58462700	     -9.96518265
      3.57000000	    -20.39353578	     -0.44250516	      6.96350851	     -1.85644303	     -0.03828284	     -0.27454169	     47.10686547	      0.14578707	      3.77346421	    -11.48789526	     -4.37850143	     -4.51732132	     10.61532578	     -0.92154547	      3.09520403	     12.13731339	    -14.77038113	     19.87264119	     28.84597679	    -62.85563300	     13.60856564	     -1.51220271	    -10.15099269
      3.57500000	    -20.43494865	     -0.63984847	      6.91179675	     -1.84735562	     -0.03954307	     -0.27406988	     47.36962441	      0.48930487	      3.72763882	    -12.68541317	     -5.58642524	     -4.93827898	     11.34722994	     -0.92830579	      2.76101594	     11.54972224	    -15.68256629	     19.27114943	     29.65368890	    -62.48377410	     13.81974106	     -1.33585533	    -10.15729240
      3.58000000	    -20.46775314	     -0.83563878	      6.89051484	     -1.83834023	     -0.04067772	     -0.27360157	     47.62703557	      0.80968814	      3.65779691	    -13.89733478	     -6.99735862	     -5.46721042	     11.92172622	     -0.87290294	      2.41344951	     10.94139075	    -16.67918216	     18.55062573	     30.51688760	    -62.12006353	     14.00055522	     -1.16989236	    -10.18539729
      3.58500000	    -20.51119471	     -1.04406785	      6.80010774	     -1.82927195	     -0.04174678	     -0.27306526	     47.91324766	      1.19058926	      3.61001245	    -15.14085833	     -8.50695213	     -6.07120917	     12.28343219	     -0.77366639	      2.03339392	     10.21050478	    -17.70717142	     17.69869788	     31.40732243	    -61.75210237	     14.19602876	     -0.96957237	    -10.11977325
      3.59000000	    -20.56942906	     -1.26941823	      6.68841100	     -1.82021196	     -0.04273119	     -0.27249967	     48.22595510	      1.60467668	      3.58479816	    -16.40898002	    -10.00783523	     -6.79729363	     12.37255508	     -0.59725878	      1.61337352	      9.39759544	    -18.80021761	     16.70512768	     32.35143919	    -61.36776419	     14.40073458	     -0.74579928	    -10.03007490
      3.59500000	    -20.61146682	     -1.46733289	      6.52431251	     -1.81118561	     -0.04360802	     -0.27198820	     48.51746809	      2.02759456	      3.61831330	    -17.61997767	    -11.67396037	     -7.83147298	     13.48411706	     -0.47630521	      1.23286724	      8.71666501	    -19.72007673	     13.81870329	     33.54259581	    -51.21473622	     14.57282737	     -0.51731602	     -9.87087635
      3.60000000	    -20.62292467	     -1.79640579	      6.34612835	     -1.80202295	     -0.04433154	     -0.27129168	     48.79961807	      2.62975297	      3.70150945	    -19.11489960	    -12.07335655	     -8.21187283	     10.19829189	     -0.23861356	      0.62110760	      7.67694471	    -20.88164178	     12.18458197	     34.77357589	    -49.07808878	     14.73592081	     -0.16682356	     -9.72120530
      3.60500000	    -20.73674050	     -1.98514363	      6.12347074	     -1.79302023	     -0.04509465	     -0.27062498	     49.17704164	      3.15982488	      4.04268688	    -20.53654543	    -12.63903606	     -9.06899151	      8.51850455	      0.03877414	      0.19675639	      6.78923453	    -21.67777587	      8.06793143	     36.14951324	    -35.35435473	     14.96856037	      0.05451526	     -9.47195565
      3.61000000	    -20.86733302	     -2.27812107	      5.98180135	     -1.78398473	     -0.04577610	     -0.26999484	     49.57644698	      3.74173042	      4.24147176	    -22.11958897	    -12.21292771	     -9.43310095	      4.59104247	      0.50594132	     -0.38016433	      5.89778962	    -22.79859162	      5.36131293	     37.36191360	    -30.20781745	     15.23542033	      0.34560151	     -9.34508054
      3.61500000	    -20.83835950	     -2.56365082	      5.73512929	     -1.77491123	     -0.04623416	     -0.26919817	     49.72052585	      4.46007361	      4.64397053	    -23.53863658	    -11.83665673	    -10.17591301	      1.86605714	      0.75058884	     -0.99924161	      4.84665880	    -23.60504522	      1.21635678	     38.68098649	    -19.47237505	     15.31772659	      0.67401268	     -9.06560026
      3.62000000	    -20.83954971	     -2.82898545	      5.54941155	     -1.76594453	     -0.04664774	     -0.26856665	     49.85676063	      5.11896364	      5.02379189	    -24.90580166	    -11.32210100	    -10.92215824	      0.01556838	      1.12837845	     -1.56168814	      4.07182577	    -24.60308837	     -2.27069753	     39.65672728	    -13.36817578	     15.41993637	      0.96946657	     -8.85846593
      3.62500000	    -20.75860741	     -3.18691420	      5.37300182	     -1.75695843	     -0.04692263	     -0.26790049	     49.83135914	      5.88712914	      5.37996779	    -26.18609002	    -10.52626475	    -11.63255870	     -2.13818842	      1.50672589	     -2.23758981	      3.41986293	    -25.75794631	     -5.37777248	     40.53841163	     -9.97079630	     15.44176521	      1.35771662	     -8.68130292
      3.63000000	    -20.84478397	     -3.36243079	      5.14061804	     -1.74823717	     -0.04738051	     -0.26722863	     49.95637033	      6.53189891	      5.91208065	    -27.37690504	    -10.02649890	    -12.46685247	     -2.30797470	      2.13801505	     -2.63507172	      3.04360708	    -27.10809874	     -7.94681452	     41.03268898	    -10.11873786	     15.59319776	      1.56165290	     -8.35018282
      3.63500000	    -20.74580332	     -3.69938047	      4.98581424	     -1.73942501	     -0.04753265	     -0.26658837	     49.81871526	      7.29920551	      6.23482202	    -28.60353109	     -8.49684931	    -12.75230798	     -5.86052950	      2.61037762	     -3.21513361	      2.71180829	    -28.32279805	    -11.32733614	     41.29878758	     -7.27263764	     15.57465219	      1.91876894	     -8.19938420
      3.64000000	    -20.70133705	     -3.89245053	      4.79886758	     -1.73091773	     -0.04773641	     -0.26603317	     49.68370297	      7.91592817	      6.58604672	    -29.59391915	     -7.78292674	    -13.41045601	     -5.80459118	      3.24043504	     -3.56309418	      2.55771604	    -29.76067403	    -14.10633175	     41.12236771	     -7.78252594	     15.55916113	      2.14320482	     -7.92594528
      3.64500000	    -20.66983347	     -4.14101878	      4.58297292	     -1.72245632	     -0.04785130	     -0.26545480	     49.47745957	      8.58467862	      6.91912992	    -30.42492590	     -7.08581553	    -13.98250498	     -5.89654741	      3.94646459	     -3.93973418	      2.44084255	    -31.23241798	    -16.94948399	     40.60213872	     -8.45982297	     15.56121128	      2.43205641	     -7.60946721
      3.65000000	    -20.68178602	     -4.36784063	      4.42736626	     -1.71405410	     -0.04797489	     -0.26488491	     49.30442714	      9.16800701	      7.07373270	    -31.33265940	     -5.56213576	    -13.89703675	     -8.25636922	      4.80497385	     -4.24763122	      2.51061225	    -32.90128872	    -19.06381690	     39.76205689	    -12.43944282	     15.61670492	      2.66052976	     -7.37232008
      3.65500000	    -20.52731949	     -4.63677066	      4.21599595	     -1.70574396	     -0.04782458	     -0.26431189	     48.83002547	      9.79650072	      7.24809163	    -31.88080974	     -4.88697288	    -14.26351121	     -7.69801543	      5.54319091	     -4.60010447	      2.49112653	    -34.64034489	    -20.80121189	     38.53088154	    -17.95732100	     15.47307970	      2.97076822	     -7.06651464
